<?xml version="1.0" encoding="utf-8"?>
<!-- Generator: Adobe Illustrator 21.1.0, SVG Export Plug-In . SVG Version: 6.00 Build 0)  -->
<svg version="1.1" id="Layer_1" xmlns="http://www.w3.org/2000/svg" xmlns:xlink="http://www.w3.org/1999/xlink" x="0px" y="0px"
	 viewBox="0 0 271.7 46.4" style="enable-background:new 0 0 271.7 46.4;" xml:space="preserve">
<style type="text/css">
	.st0{fill:#FFFFFF;}
	.st1{fill:#F3F3F4;}
	.st2{fill:#E7E7E7;}
</style>
<g>
	<path class="st0" d="M24,19c0-2.1,0-3.8-0.2-5.6H26l0.1,4.1h0.1c1.5-2.7,3.8-4.7,7.6-4.7c3.2,0,5.7,2.1,6.7,5.1h0.1
		c0.6-1.4,1.5-2.4,2.4-3.2c1.5-1.3,3.1-2,5.6-2c2.3,0,7.7,1.3,7.7,10.1v13.8h-2.3V23.2c0-5.3-2-8.4-6.1-8.4c-2.9,0-5.2,2.1-6.1,4.6
		c-0.2,0.7-0.4,1.5-0.4,2.3v15h-2.3V22.1c0-4.2-2-7.3-5.8-7.3c-3.1,0-5.6,2.5-6.5,5.3c-0.2,0.6-0.3,1.5-0.3,2.2v14.4H24V19z"/>
	<path class="st0" d="M66.9,6.7c0,1.1-0.7,2-2,2c-1.1,0-1.8-0.9-1.8-2s0.8-2,1.9-2S66.9,5.6,66.9,6.7z M63.9,36.8V13.4h2.3v23.4
		H63.9z"/>
	<path class="st0" d="M76.4,24.6L76.4,24.6c0.7-0.7,1.6-1.8,2.3-2.6l8.3-8.7h2.8l-9.5,9.7l10.8,13.7h-2.8l-9.6-12.3L76.4,27v9.8
		h-2.3V2.1h2.3V24.6z"/>
	<path class="st0" d="M95.6,24.8c0,7.5,4,10.4,8.9,10.4c3.4,0,5.2-0.7,6.5-1.3l0.6,1.8c-0.9,0.5-3.3,1.5-7.4,1.5
		c-6.7,0-10.9-4.9-10.9-11.8c0-7.8,4.5-12.7,10.5-12.7c7.7,0,9.1,7.2,9.1,10.6c0,0.6,0,1-0.1,1.4H95.6z M110.5,23
		c0-3.3-1.3-8.2-7-8.2c-5.2,0-7.4,4.6-7.9,8.2H110.5z"/>
	<path class="st0" d="M132.8,8.2v5.2h6.7v1.9h-6.7v15.2c0,3,0.9,4.8,3.4,4.8c1.2,0,2.1-0.1,2.7-0.3l0.3,1.8
		c-0.8,0.3-1.9,0.6-3.3,0.6c-1.7,0-3.1-0.5-4-1.7c-1.1-1.2-1.5-3.2-1.5-5.6V15.3h-4v-1.9h4V9.1L132.8,8.2z"/>
	<path class="st0" d="M144.6,20.4c0-2.3,0-4.7-0.2-7h2.1l0.1,4.7h0.1c1-2.9,3.5-5.3,6.6-5.3c0.3,0,0.7,0,1,0.1v2.2
		c-0.3-0.1-0.7-0.1-1.1-0.1c-3.2,0-5.5,2.8-6.1,6.5c-0.1,0.7-0.2,1.5-0.2,2.2v12.9h-2.3V20.4z"/>
	<path class="st0" d="M178.5,24.8c0,8.7-6,12.5-11.2,12.5c-6,0-10.7-4.7-10.7-12c0-8,5.3-12.4,11.1-12.4
		C174.1,12.8,178.5,17.7,178.5,24.8z M158.9,25.1c0,5.9,3.8,10.2,8.5,10.2c4.9,0,8.7-4.4,8.7-10.4c0-4.3-2.4-10.2-8.6-10.2
		C161.6,14.8,158.9,20.1,158.9,25.1z"/>
	<path class="st0" d="M184.4,20.8c0-2.9,0-5.2-0.2-7.5h2.2l0.1,4.4h0.1c1.7-3.1,4.6-5,8.6-5c6,0,10.1,5,10.1,11.9
		c0,8.3-5,12.6-10.6,12.6c-3.4,0-6.3-1.5-8-4.3h-0.1v13.5h-2.3V20.8z M186.8,27.6c0,0.6,0,1.3,0.2,1.9c1,3.6,4.1,6,7.7,6
		c5.4,0,8.4-4.3,8.4-10.6c0-5.3-2.9-10-8.2-10c-3.4,0-6.7,2.3-7.8,6.2c-0.1,0.6-0.3,1.4-0.3,2V27.6z"/>
	<path class="st0" d="M211.7,24.8c0,7.5,4,10.4,8.9,10.4c3.4,0,5.2-0.7,6.5-1.3l0.6,1.8c-0.9,0.5-3.3,1.5-7.4,1.5
		c-6.7,0-10.9-4.9-10.9-11.8c0-7.8,4.5-12.7,10.5-12.7c7.7,0,9.1,7.2,9.1,10.6c0,0.6,0,1-0.1,1.4H211.7z M226.7,23
		c0-3.3-1.3-8.2-7-8.2c-5.2,0-7.4,4.6-7.9,8.2H226.7z"/>
	<path class="st0" d="M249.6,31.2c0,1.9,0,3.8,0.3,5.6h-2.1l-0.3-3.4h-0.1c-1.2,1.8-3.8,3.9-7.5,3.9c-4.7,0-6.9-3.3-6.9-6.4
		c0-5.4,4.7-8.7,14.3-8.6v-0.6c0-2.3-0.4-6.9-6-6.9c-2,0-4.2,0.5-5.9,1.8l-0.7-1.7c2.1-1.4,4.8-2,6.9-2c6.8,0,8.1,5.1,8.1,9.2V31.2z
		 M247.3,24.2c-5.1-0.1-11.9,0.6-11.9,6.2c0,3.4,2.2,4.9,4.7,4.9c3.9,0,6.1-2.4,6.9-4.7c0.2-0.5,0.2-1,0.2-1.4V24.2z"/>
</g>
<polygon class="st1" points="271.7,22.2 267.4,22.2 253.7,44.5 258,44.5 "/>
<polygon class="st2" points="271.7,22.2 269.5,25.7 253.7,0 258,0 "/>
<polygon class="st2" points="0,22.2 4.3,22.2 18,0 13.7,0 "/>
<polygon class="st1" points="0,22.2 2.2,18.7 18,44.5 13.7,44.5 "/>
</svg>
